<svg xmlns="http://www.w3.org/2000/svg" viewBox="0 0 800 600">
  <defs>
    <linearGradient id="waveGradient" x1="0" y1="0" x2="1" y2="0">
  <stop offset="0" stop-color="#C79081"/>
  <stop offset="1" stop-color="#DFA579"/>
    </linearGradient>
    
    <path id="wave1" d="M 0 0 L 0 400 Q 100 380 200 350 T 400 300 T 600 320 T 800 280 L 800 0 Z">
      <animate attributeName="d" 
        values="M 0 0 L 0 400 Q 100 380 200 350 T 400 300 T 600 320 T 800 280 L 800 0 Z;
                M 0 0 L 0 380 Q 100 340 200 360 T 400 280 T 600 340 T 800 300 L 800 0 Z;
                M 0 0 L 0 400 Q 100 380 200 350 T 400 300 T 600 320 T 800 280 L 800 0 Z"
        dur="15s" repeatCount="indefinite"/>
    </path>
    
    <path id="wave2" d="M 0 0 L 0 380 Q 100 350 200 320 T 400 340 T 600 300 T 800 320 L 800 0 Z">
      <animate attributeName="d"
        values="M 0 0 L 0 380 Q 100 350 200 320 T 400 340 T 600 300 T 800 320 L 800 0 Z;
                M 0 0 L 0 360 Q 100 320 200 350 T 400 320 T 600 340 T 800 290 L 800 0 Z;
                M 0 0 L 0 380 Q 100 350 200 320 T 400 340 T 600 300 T 800 320 L 800 0 Z"
        dur="14s" repeatCount="indefinite"/>
    </path>

    <path id="wave3" d="M 0 0 L 0 360 Q 100 330 200 340 T 400 320 T 600 280 T 800 300 L 800 0 Z">
      <animate attributeName="d"
        values="M 0 0 L 0 360 Q 100 330 200 340 T 400 320 T 600 280 T 800 300 L 800 0 Z;
                M 0 0 L 0 340 Q 100 360 200 330 T 400 350 T 600 310 T 800 320 L 800 0 Z;
                M 0 0 L 0 360 Q 100 330 200 340 T 400 320 T 600 280 T 800 300 L 800 0 Z"
        dur="16s" repeatCount="indefinite"/>
    </path>

    <path id="wave4" d="M 0 0 L 0 340 Q 100 310 200 330 T 400 300 T 600 320 T 800 280 L 800 0 Z">
      <animate attributeName="d"
        values="M 0 0 L 0 340 Q 100 310 200 330 T 400 300 T 600 320 T 800 280 L 800 0 Z;
                M 0 0 L 0 320 Q 100 340 200 310 T 400 330 T 600 290 T 800 310 L 800 0 Z;
                M 0 0 L 0 340 Q 100 310 200 330 T 400 300 T 600 320 T 800 280 L 800 0 Z"
        dur="17s" repeatCount="indefinite"/>
    </path>
  </defs>
  
  <use href="#wave1" fill="url(#waveGradient)" opacity="0.4"/>
  <use href="#wave2" fill="url(#waveGradient)" opacity="0.4"/>
  <use href="#wave3" fill="url(#waveGradient)" opacity="0.4"/>
  <use href="#wave4" fill="url(#waveGradient)" opacity="0.4"/>
</svg>
